HIERARCHY
ROOT Hips
{
	OFFSET 0.000000 0.000000 0.000000 
	CHANNELS 6 Xposition Yposition Zposition Yrotation Zrotation Xrotation 
	JOINT Lumbar
	{
		OFFSET 0.000000 0.000000 0.000000 
		CHANNELS 3 Zrotation Xrotation Yrotation
		JOINT Neck
		{
			OFFSET 0.000000 0.445665 0.000000 
			CHANNELS 3 Zrotation Xrotation Yrotation
			End Site
			{
				OFFSET 0.000000 0.227535 0.000000 
			}
		}
		JOINT RightShoulder
		{
			OFFSET 0.019635 0.377685 0.194865 
			CHANNELS 3 Zrotation Xrotation Yrotation
			JOINT RightElbow
			{
				OFFSET 0.000000 -0.243375 0.000000 
				CHANNELS 2 Zrotation Yrotation
				JOINT RightWrist
				{
					OFFSET 0.000000 -0.264825 0.000000 
					CHANNELS 2 Zrotation Xrotation
					End Site
					{
						OFFSET 0.006600 -0.176220 0.000990 
					}
				}
			}
		}
		JOINT LeftShoulder
		{
			OFFSET 0.019635 0.377685 -0.194865 
			CHANNELS 3 Zrotation Xrotation Yrotation
			JOINT LeftElbow
			{
				OFFSET 0.000000 -0.243375 0.000000 
				CHANNELS 2 Zrotation Yrotation
				JOINT LeftWrist
				{
					OFFSET 0.000000 -0.264825 0.000000 
					CHANNELS 2 Zrotation Xrotation
					End Site
					{
						OFFSET 0.006600 -0.176220 -0.000990 
					}
				}
			}
		}
	}
	JOINT RightHip
	{
		OFFSET 0.052140 -0.069960 0.075570 
		CHANNELS 3 Zrotation Xrotation Yrotation
		JOINT RightKnee
		{
			OFFSET 0.000000 -0.402270 0.000000 
			CHANNELS 1 Zrotation
			JOINT RightAnkle
			{
				OFFSET 0.000000 -0.404085 0.000000 
				CHANNELS 3 Zrotation Xrotation Yrotation
				End Site
				{
					OFFSET 0.204105 -0.089430 0.008415 
				}
			}
		}
	}
	JOINT LeftHip
	{
		OFFSET 0.052140 -0.069960 -0.075570 
		CHANNELS 3 Zrotation Xrotation Yrotation
		JOINT LeftKnee
		{
			OFFSET 0.000000 -0.402270 0.000000 
			CHANNELS 1 Zrotation
			JOINT LeftAnkle
			{
				OFFSET 0.000000 -0.404085 0.000000 
				CHANNELS 3 Zrotation Xrotation Yrotation
				End Site
				{
					OFFSET 0.204105 -0.089430 -0.008415 
				}
			}
		}
	}
}
MOTION
Frames: 22
Frame Time: 0.02
6e-05 -0.00032 4e-05 29.82676 -31.29145 -7.51049 48.27739 2.56002 -5.72993 1.12173 0.06838 -0.91892 -33.60313 -3.54241 -35.86143 25.47636 153.08968 21.01453 12.56393 -47.94106 16.0208 -18.82132 42.27608 -77.05689 7.50205 2.63715 45.64567 -1.33443 -2.57435 -19.01732 -6.4437 -2.63043 -3.5188 49.6323 5.10518 12.77108 -25.22132 -6.58165 1.45109 2.94775
-0.00049 -0.00045 0.00045 29.75643 -31.32399 -7.48953 48.24078 2.53143 -5.71314 1.67862 0.0932 -0.92053 -31.21991 -4.13917 -32.89159 25.7795 146.55369 19.17723 11.44396 -44.67907 14.93945 -15.59456 42.34854 -82.48957 8.8066 1.65938 45.74397 -1.41349 -3.0333 -19.01939 -6.43562 -2.58973 -3.49696 49.74021 5.06325 12.56758 -25.22658 -6.57476 1.46665 2.95529
-0.00103 -0.00058 0.00086 29.68634 -31.35639 -7.46862 48.20421 2.50292 -5.69621 2.23443 0.11784 -0.92215 -28.84121 -4.73426 -29.9291 26.08227 140.03769 17.34566 10.32737 -41.42321 13.86271 -12.38126 42.42077 -87.89622 10.10355 0.68586 45.84198 -1.49238 -3.49129 -19.02145 -6.42757 -2.54911 -3.47517 49.84781 5.02143 12.36462 -25.23181 -6.56789 1.48218 2.96282
-0.00157 -0.00071 0.00128 29.61621 -31.38883 -7.44772 48.16771 2.47442 -5.67944 2.7897 0.14257 -0.92376 -26.46486 -5.32923 -26.96802 26.38461 133.52183 15.51406 9.21084 -38.17063 12.78494 -9.16507 42.49305 -93.31036 11.40338 -0.28865 45.93999 -1.57121 -3.94891 -19.02351 -6.41951 -2.50852 -3.45339 49.9554 4.97963 12.16174 -25.23705 -6.56102 1.49769 2.97034
-0.00211 -0.00084 0.00169 29.54589 -31.42138 -7.42678 48.13118 2.44585 -5.6629 3.34581 0.16751 -0.92537 -24.0851 -5.92575 -24.00054 26.68697 126.98598 13.67664 8.09095 -34.9134 11.70196 -5.93391 42.56544 -98.75485 12.71246 -1.26799 46.03827 -1.65017 -4.40732 -19.02558 -6.41143 -2.46786 -3.43158 50.06326 4.93773 11.95832 -25.24234 -6.55413 1.51324 2.97788
-0.00266 -0.00097 0.0021 29.47634 -31.45346 -7.40595 48.09451 2.41747 -5.64516 3.90096 0.1915 -0.92699 -21.70879 -6.51777 -21.04889 26.99052 120.51208 11.8574 6.98138 -31.66065 10.6383 -2.75821 42.63728 -104.08218 13.98405 -2.22928 46.13569 -1.72893 -4.86439 -19.0276 -6.40345 -2.42735 -3.40983 50.1703 4.89608 11.75636 -25.24747 -6.54731 1.52871 2.98538
-0.0032 -0.0011 0.00251 29.40514 -31.4865 -7.38489 48.0582 2.38872 -5.62982 4.45739 0.21742 -0.92859 -19.32815 -7.11831 -18.06806 27.2917 113.92116 10.00389 5.85231 -28.40254 9.53738 0.52487 42.71047 -109.6367 15.32872 -3.22545 46.23481 -1.80801 -5.32366 -19.02974 -6.39527 -2.38657 -3.38797 50.27891 4.85398 11.55173 -25.25287 -6.54036 1.54434 2.99296
-0.00374 -0.00123 0.00292 29.33577 -31.51859 -7.3641 48.02149 2.36033 -5.61232 5.01272 0.24148 -0.93021 -16.95152 -7.71078 -15.11519 27.59438 107.43722 8.18144 4.74115 -25.14925 8.46999 3.71022 42.78179 -114.98664 16.60775 -4.19017 46.3322 -1.88678 -5.7809 -19.03176 -6.38728 -2.34606 -3.36623 50.38601 4.81226 11.34946 -25.25807 -6.53354 1.55979 3.00045
-0.00428 -0.00135 0.00333 29.26741 -31.54978 -7.3434 47.98455 2.33232 -5.59194 5.56673 0.26355 -0.93183 -14.57821 -8.29449 -12.19072 27.90182 101.08501 6.39836 3.65168 -21.90027 7.44668 6.77169 42.85333 -120.06754 17.79949 -5.11379 46.42815 -1.96528 -6.23591 -19.03366 -6.37948 -2.30574 -3.34456 50.49156 4.77115 11.15039 -25.26284 -6.52682 1.57513 3.00788
-0.00483 -0.0015 0.00376 29.18956 -31.58695 -7.32148 47.9497 2.30193 -5.5874 6.12843 0.29796 -0.93341 -12.18093 -8.93194 -9.08538 28.19069 93.97753 4.39292 2.43677 -18.62157 6.17902 10.53267 42.93114 -126.63935 19.47222 -6.26589 46.53444 -2.04564 -6.70454 -19.03631 -6.37049 -2.26395 -3.32225 50.60694 4.72694 10.93386 -25.26955 -6.51935 1.59142 3.0158
-0.00537 -0.0016 0.00414 29.13405 -31.61098 -7.30255 47.90996 2.27669 -5.54992 6.67372 0.30576 -0.9351 -9.83781 -9.45384 -6.37324 28.51305 88.46237 2.85411 1.48702 -15.4094 5.42093 12.82644 42.99093 -130.10269 20.144 -6.94114 46.61759 -2.1219 -7.14383 -19.03735 -6.36404 -2.22551 -3.30145 50.70099 4.68904 10.75359 -25.27248 -6.51356 1.60554 3.02262
-0.00588 -0.00155 0.00438 29.12176 -31.60261 -7.28867 47.86031 2.26472 -5.41722 7.17498 0.24445 -0.93698 -7.6152 -9.67315 -4.65838 28.97501 87.36637 2.62763 1.26783 -12.35035 6.12464 10.98174 43.04048 -124.64617 17.92849 -6.2516 46.64766 -2.18806 -7.50616 -19.03529 -6.36444 -2.19442 -3.28364 50.74051 4.67067 10.6788 -25.26294 -6.51161 1.61504 3.027
-0.00639 -0.00145 0.00457 29.13553 -31.58015 -7.27848 47.8049 2.25812 -5.25227 7.6593 0.15569 -0.93906 -5.45327 -9.77355 -3.35638 29.46159 87.85912 2.86311 1.31451 -9.36539 7.32869 7.68387 43.06508 -116.14109 14.73479 -5.09343 46.65269 -2.24972 -7.83763 -19.03218 -6.3674 -2.16716 -3.26762 50.75776 4.65839 10.63951 -25.25032 -6.5115 1.6221 3.03016
-0.0069 -0.00137 0.00477 29.14881 -31.56206 -7.26848 47.75007 2.24958 -5.10536 8.15109 0.0769 -0.94104 -3.28042 -9.91915 -1.91507 29.90598 87.59346 2.86728 1.2374 -6.36323 8.26175 5.12519 43.07493 -109.28497 12.07936 -4.18674 46.66222 -2.31291 -8.18193 -19.02764 -6.36929 -2.13923 -3.25151 50.7827 4.64165 10.57979 -25.24009 -6.51107 1.62943 3.03351
-0.00741 -0.0013 0.00503 29.11304 -31.55344 -7.25013 47.70462 2.2388 -4.94443 8.64498 0.00858 -0.94282 -1.03266 -10.10264 -0.25863 30.48205 87.48831 2.96547 1.17267 -3.2838 9.37814 2.23378 43.19311 -101.30795 9.02263 -3.11747 46.70027 -2.37898 -8.5344 -19.02779 -6.37084 -2.10635 -3.23216 50.81825 4.63134 10.53742 -25.22435 -6.50848 1.64038 3.03845
-0.00791 -0.00119 0.00516 29.18707 -31.52061 -7.25068 47.63727 2.23414 -4.80466 9.12899 -0.08798 -0.94539 1.03878 -10.178 0.83682 30.78878 87.42086 2.97372 1.14599 -0.39277 10.23352 -0.31258 43.08196 -94.9458 6.57448 -2.2746 46.67359 -2.43712 -8.85852 -19.02215 -6.37366 -2.08524 -3.22022 50.82595 4.60999 10.46843 -25.221 -6.5108 1.6431 3.03972
-0.00839 -0.00098 0.00496 29.54559 -31.43447 -7.29651 47.51956 2.2431 -4.73434 9.60243 -0.25644 -0.94729 2.68695 -9.99416 0.62144 30.35483 87.10589 2.65241 1.15149 2.07863 10.22477 -1.51311 42.32493 -93.77514 6.00943 -2.18325 46.47008 -2.48301 -9.14707 -18.96589 -6.37976 -2.09034 -3.22598 50.7664 4.54853 10.30753 -25.23847 -6.5264 1.62473 3.03169
-0.00884 -0.00075 0.00464 30.01607 -31.32276 -7.36206 47.37849 2.25817 -4.68562 10.06388 -0.45228 -0.95047 4.14938 -9.70455 -0.16443 29.64847 86.76916 2.22042 1.18746 4.34609 9.94006 -2.32163 41.34185 -94.33664 6.0967 -2.33382 46.20389 -2.52034 -9.40209 -18.91121 -6.38691 -2.10779 -3.23939 50.67892 4.47701 10.12025 -25.27105 -6.54682 1.59798 3.01989
-0.0093 -0.00055 0.0044 30.44327 -31.21587 -7.4229 47.24231 2.27199 -4.62528 10.52299 -0.63515 -0.95491 5.66656 -9.45563 -0.78572 29.05935 86.41426 1.81568 1.21457 6.6548 9.79497 -3.33515 40.47406 -94.11743 5.91114 -2.36621 45.96816 -2.55494 -9.64875 -18.8776 -6.39342 -2.12353 -3.25102 50.60133 4.41573 9.95162 -25.30616 -6.56491 1.57438 3.00945
-0.00979 -0.00025 0.00407 30.83902 -31.13637 -7.46712 47.12971 2.28046 -4.57241 11.01564 -0.82109 -0.95166 7.31222 -9.23033 -1.04352 28.49386 86.22274 1.51669 1.23001 9.18434 9.60641 -4.29067 39.55079 -93.77185 5.59617 -2.41727 45.71994 -2.61388 -9.99189 -18.74847 -6.401 -2.12435 -3.25624 50.53435 4.33173 9.75681 -25.302 -6.58372 1.55346 3.00046
-0.0102 -0.00015 0.0039 31.32684 -30.99496 -7.54907 46.96301 2.30034 -4.5083 11.43424 -1.00689 -0.96466 8.64023 -8.93652 -2.16114 27.82033 85.67834 0.97481 1.27341 11.19859 9.43755 -5.24918 38.69171 -94.13114 5.71278 -2.49268 45.48727 -2.62445 -10.1291 -18.82309 -6.40622 -2.15731 -3.27573 50.43947 4.29135 9.60891 -25.3826 -6.60206 1.525 2.98758
-0.01045 -0.00057 0.00415 32.03875 -30.68044 -7.74353 46.64914 2.36007 -4.41907 11.66418 -1.18453 -1.0228 9.19453 -8.44357 -5.74716 26.86214 84.04374 -0.29581 1.38635 11.90594 9.37807 -6.35278 38.04923 -96.11051 6.91488 -2.58146 45.27687 -2.46592 -9.68165 -19.41825 -6.40784 -2.29199 -3.34051 50.26956 4.38455 9.60403 -25.69849 -6.61874 1.47776 2.96485
